<svg xmlns="http://www.w3.org/2000/svg" viewBox="0 0 208.3 74.77"><defs><style>.cls-1{fill:#fff;}</style></defs><g id="Camada_2" data-name="Camada 2"><g id="Camada_1-2" data-name="Camada 1"><path class="cls-1" d="M49.73,55.76c0,3,.14,5.7.23,8.06H44.68l-.36-2.91h-.11A7.56,7.56,0,0,1,38,64.28c-5.09,0-7.12-3.84-7.12-11.06V36.07H37V52.48c0,4,.71,6.71,3.2,6.71a3.4,3.4,0,0,0,3.12-2.72,7.94,7.94,0,0,0,.34-2.41v-18h6.09Z"/><path class="cls-1" d="M55.42,44.8c0-3.75-.14-6.4-.23-8.73h5.32l.31,3.36h.11a6.41,6.41,0,0,1,5.85-3.82c5.52,0,8.33,6,8.33,14.29,0,10.07-4.29,14.38-8.83,14.38a5.32,5.32,0,0,1-4.7-2.93h-.11V74.77h-6Zm6,8.87A7.53,7.53,0,0,0,61.78,56c.7,2.7,2.13,3.27,3.13,3.27C68,59.26,69,54.89,69,50c0-5.5-1.33-9.21-4.11-9.21-1.53,0-2.91,1.7-3.21,3.56a7.38,7.38,0,0,0-.25,2Z"/><path class="cls-1" d="M103.58,49c-.22-4.31-.47-9.54-.36-13.79H103c-.75,4.2-1.78,8.86-2.71,12.53l-4,15.64H92.18l-3.77-15.2c-1-3.91-2-8.67-2.71-13h-.16c-.05,4.35-.31,9.43-.53,14l-.68,14.64H79L81.57,25.4h6.48L91.76,41c1.16,5,2.13,9,2.88,13.34h.14C95.44,50,96.3,46,97.41,41L101,25.4h6.55l2.27,38.42h-5.53Z"/><path class="cls-1" d="M121.38,28.8A3.25,3.25,0,0,1,118,32.3a3.22,3.22,0,0,1-3.16-3.5,3.28,3.28,0,1,1,6.53,0Zm-6.26,35V36.07h6.09V63.82Z"/><path class="cls-1" d="M126.8,43.89c0-3.14-.13-5.36-.22-7.82h5.27l.31,3.27h.11a7.49,7.49,0,0,1,6.56-3.73c4.63,0,7.09,3.6,7.09,10V63.82h-6.08V46.22c0-2.77-.59-5.48-3.24-5.48-1.51,0-2.86,1.16-3.4,3.4a9.32,9.32,0,0,0-.31,2.52V63.82H126.8Z"/><path class="cls-1" d="M156.38,51.58c.07,6.2,2.94,7.89,6.18,7.89a12.72,12.72,0,0,0,5-1l.87,4.38a17.58,17.58,0,0,1-6.95,1.31c-7.15,0-11-5.19-11-13.79,0-9.18,4.4-14.77,10.32-14.77s8.78,5.28,8.78,12.72a24,24,0,0,1-.16,3.25Zm7.55-4.33c0-4.46-1.41-7.1-3.57-7.1-2.64,0-3.83,3.85-4,7.1Z"/><path class="cls-1" d="M174,43.89c0-2.57-.13-5.46-.22-7.82h5.32l.31,4.19h.18c1.07-2.82,3.37-4.65,5.63-4.65a7.21,7.21,0,0,1,1.3.1V41.8a7.27,7.27,0,0,0-1.3-.07c-2.11,0-4.23,1.76-4.88,4.77a12.7,12.7,0,0,0-.25,2.66V63.82H174Z"/><path class="cls-1" d="M208.3,34.12a9.61,9.61,0,1,1-9.58-9.35A9.4,9.4,0,0,1,208.3,34.12Zm-16.82,0a7.25,7.25,0,0,0,7.3,7.47,7.16,7.16,0,0,0,7.12-7.41,7.22,7.22,0,1,0-14.42-.06Zm5.76,4.9h-2.17V29.68a18.16,18.16,0,0,1,3.59-.29,5.9,5.9,0,0,1,3.25.68,2.58,2.58,0,0,1,.91,2.06,2.38,2.38,0,0,1-1.93,2.16v.12a2.76,2.76,0,0,1,1.71,2.28,7,7,0,0,0,.68,2.33h-2.34a8.24,8.24,0,0,1-.74-2.28c-.17-1-.74-1.48-1.94-1.48h-1Zm0-5.3h1c1.2,0,2.17-.4,2.17-1.37s-.63-1.42-2-1.42a5.75,5.75,0,0,0-1.2.11Z"/><circle class="cls-1" cx="21" cy="58" r="7"/><circle class="cls-1" cx="10" cy="41" r="10"/><circle class="cls-1" cx="23.5" cy="13.5" r="13.5"/></g></g></svg>